<mxfile host="app.diagrams.net" modified="2024-04-04T15:08:08.701Z" agent="Mozilla/5.0 (Windows NT 10.0; Win64; x64) AppleWebKit/537.36 (KHTML, like Gecko) Chrome/123.0.0.0 Safari/537.36" etag="UXNXr3h1ykatEa9KnpP3" version="24.2.2" type="github">
  <diagram name="Page-1" id="L973qJvMLUWyVz0y4gLZ">
    <mxGraphModel dx="1015" dy="1096" grid="1" gridSize="10" guides="1" tooltips="1" connect="1" arrows="1" fold="1" page="1" pageScale="1" pageWidth="827" pageHeight="1169" math="0" shadow="0">
      <root>
        <mxCell id="0" />
        <mxCell id="1" parent="0" />
      </root>
    </mxGraphModel>
  </diagram>
</mxfile>
